<?xml version="1.0" standalone="no"?>
<!DOCTYPE svg PUBLIC "-//W3C//DTD SVG 20010904//EN"
 "http://www.w3.org/TR/2001/REC-SVG-20010904/DTD/svg10.dtd">
<svg version="1.0" xmlns="http://www.w3.org/2000/svg"
 width="500.000000pt" height="500.000000pt" viewBox="0 0 500.000000 500.000000"
 preserveAspectRatio="xMidYMid meet">
<metadata>
Created by potrace 1.11, written by Peter Selinger 2001-2013
</metadata>
<g transform="translate(0.000000,500.000000) scale(0.100000,-0.100000)"
fill="#000000" stroke="none">
<path d="M838 4491 c-157 -51 -283 -178 -327 -330 -19 -63 -20 -124 -25 -1401
-3 -734 -2 -1461 3 -1615 7 -255 10 -285 30 -336 32 -80 110 -178 181 -228 93
-65 152 -82 320 -92 80 -5 811 -5 1625 -1 l1480 8 58 21 c155 58 282 204 316
363 9 41 11 455 9 1650 l-3 1595 -22 58 c-48 128 -161 242 -293 299 l-55 23
-1620 2 c-1546 2 -1623 1 -1677 -16z m1022 -38 c0 -4 -79 -295 -176 -647 -121
-439 -186 -659 -206 -698 -62 -116 -194 -208 -332 -229 -53 -9 -82 -7 -144 5
-114 24 -417 110 -417 119 0 14 1250 1456 1263 1456 6 1 12 -2 12 -6z m1305
-2 c-3 -5 180 -267 405 -581 226 -315 409 -574 407 -576 -1 -2 -339 145 -750
326 -410 182 -750 330 -754 330 -14 -1 -528 -375 -526 -383 4 -17 1508 -2107
1516 -2107 13 0 527 371 527 381 0 5 -182 262 -404 571 -222 310 -402 565
-400 567 2 2 289 -122 638 -275 l635 -279 1 -720 c0 -457 -4 -744 -11 -785
-31 -191 -182 -340 -375 -370 -46 -7 -416 -10 -1118 -8 l-1050 3 -258 360
c-142 197 -254 362 -250 366 19 18 585 421 595 424 7 2 148 -187 315 -421 210
-294 307 -422 316 -417 7 5 137 97 289 206 l276 198 -163 227 c-318 445 -1260
1758 -1309 1825 -48 67 -50 68 -73 52 -13 -8 -24 -13 -24 -10 0 3 68 250 150
549 83 300 150 547 150 550 0 3 282 6 626 6 379 0 623 -4 619 -9z m938 -6
c182 -38 318 -184 347 -371 6 -38 9 -121 8 -185 l-3 -115 -240 334 c-132 184
-241 339 -243 343 -5 13 54 10 131 -6z m-3333 -1561 c186 -52 215 -58 315 -60
l110 -2 212 -294 c196 -272 210 -294 195 -309 -28 -26 -579 -419 -589 -419 -4
0 -113 146 -240 325 l-233 324 0 250 c0 196 3 249 13 246 6 -2 104 -30 217
-61z m25 -2001 c197 -274 239 -339 223 -341 -10 -2 -51 2 -90 8 -188 29 -335
165 -373 347 -14 66 -22 343 -9 330 3 -3 115 -158 249 -344z"/>
</g>
</svg>
